<svg width="16" height="16" viewBox="0 0 16 16" fill="none" xmlns="http://www.w3.org/2000/svg">
<g clip-path="url(#clip0_1151_55)">
<path d="M7.96376 6.41565C7.81958 7.33307 7.59522 8.09935 7.18967 8.87479L15.022 9.50106L15.0348 8.3647L7.96376 6.41565Z" fill="#985D0B"/>
<path d="M7.02601 9.27304C6.46099 10.2111 5.91492 10.8626 5.04883 11.4438L14.9975 10.6646L15.0143 9.55797L7.02601 9.27304Z" fill="#985D0B"/>
<path d="M7.87038 3.03587C7.97496 3.5712 8.06872 4.49468 8.06872 5.06517C8.06872 5.38442 8.05063 5.69793 8.0171 6.00703L15.0314 8.32083L15.0588 7.0461L7.87038 3.03587Z" fill="#985D0B"/>
<path fill-rule="evenodd" clip-rule="evenodd" d="M6.63838 9.30234L0.948654 9.63151L0.960267 10.8088L4.64949 11.4859C5.4773 10.8706 6.11805 10.2699 6.63838 9.30234Z" fill="#FF6600"/>
<path fill-rule="evenodd" clip-rule="evenodd" d="M7.66779 6.47244L0.969299 8.33091L0.976178 9.53894L6.89694 8.88937C7.26456 8.15236 7.52894 7.33816 7.66779 6.47244H7.66779Z" fill="#FF6600"/>
<path fill-rule="evenodd" clip-rule="evenodd" d="M7.64887 3.00742L0.971451 7.07956L0.983932 8.20721L7.71683 6.04165C7.74609 5.70854 7.77964 5.08176 7.77964 4.7383C7.77964 4.14555 7.73424 3.567 7.64887 3.00742Z" fill="#FF6600"/>
<path fill-rule="evenodd" clip-rule="evenodd" d="M6.32569 0.275269L0.975251 5.59474L0.974457 6.97994L7.45872 2.53971C7.21009 1.72042 6.76528 0.944526 6.32568 0.275269H6.32569Z" fill="#FF6600"/>
<path d="M3.97894 15.9726L3.98849 13.8744L15.0055 11.8408L15.0242 12.8015L3.97894 15.9726Z" fill="#985D0B"/>
<path d="M0.945633 13.2255L3.72559 15.9756L3.73993 13.8524L0.948549 12.0939L0.945633 13.2255Z" fill="#FF6600"/>
<path d="M3.96991 13.6562L3.97766 11.7342L14.9913 10.7591L14.9893 11.7998L3.96991 13.6562Z" fill="#985D0B"/>
<path d="M0.951081 12.0465L3.74991 13.5947L3.75964 11.7326L0.941177 10.9091L0.95108 12.0465H0.951081Z" fill="#FF6600"/>
<path d="M6.60799 0.0941162C6.89141 0.561418 7.16726 0.99556 7.3461 1.52524C7.44753 1.82566 7.63384 2.18907 7.67695 2.49816L15.0314 6.9994L15.0289 5.58074L6.60799 0.0941162Z" fill="#985D0B"/>
</g>
<defs>
<clipPath id="clip0_1151_55">
<rect width="16" height="16" fill="white"/>
</clipPath>
</defs>
</svg>
