<svg width="1273" height="289" viewBox="0 0 1273 289" fill="none" xmlns="http://www.w3.org/2000/svg">
<path d="M124.152 115.227C121.603 131.858 117.637 145.75 110.467 159.808L248.935 171.161L249.161 150.56L124.152 115.227Z" fill="#985D0B"/>
<path d="M107.573 167.028C97.5845 184.033 87.9306 195.845 72.619 206.381L248.502 192.256L248.799 172.194L107.573 167.028Z" fill="#985D0B"/>
<path d="M122.501 53.9556C124.35 63.6603 126.007 80.4019 126.007 90.7441C126.007 96.5317 125.688 102.215 125.095 107.819L249.101 149.765L249.585 126.656L122.501 53.9556Z" fill="#985D0B"/>
<path fill-rule="evenodd" clip-rule="evenodd" d="M100.721 167.559L0.132462 173.526L0.337757 194.87L65.5595 207.145C80.1943 195.989 91.522 185.099 100.721 167.559V167.559Z" fill="#FF6600"/>
<path fill-rule="evenodd" clip-rule="evenodd" d="M118.92 116.256L0.497406 149.948L0.619006 171.848L105.292 160.072C111.791 146.711 116.465 131.951 118.92 116.256H118.92Z" fill="#FF6600"/>
<path fill-rule="evenodd" clip-rule="evenodd" d="M118.585 53.4403L0.535263 127.263L0.755911 147.706L119.787 108.447C120.304 102.408 120.897 91.0457 120.897 84.8192C120.897 74.0733 120.094 63.5848 118.585 53.4403V53.4403Z" fill="#FF6600"/>
<path fill-rule="evenodd" clip-rule="evenodd" d="M95.1927 3.90967L0.602483 100.345L0.58844 125.457L115.224 44.9612C110.828 30.1084 102.964 16.0425 95.1927 3.90967H95.1927Z" fill="#FF6600"/>
<path d="M53.7045 288.482L53.8732 250.443L248.643 213.578L248.974 230.995L53.7045 288.482Z" fill="#985D0B"/>
<path d="M0.0785522 238.681L49.2253 288.536L49.4788 250.045L0.130099 218.165L0.0785522 238.681V238.681Z" fill="#FF6600"/>
<path d="M53.5448 246.489L53.6817 211.646L248.391 193.969L248.356 212.835L53.5448 246.489Z" fill="#985D0B"/>
<path d="M0.175081 217.306L49.6555 245.375L49.8276 211.616L0 196.688L0.175066 217.306H0.175081Z" fill="#FF6600"/>
<path d="M100.183 0.625122C105.194 9.09673 110.071 16.9672 113.232 26.5696C115.026 32.0158 118.319 38.6039 119.082 44.2075L249.101 125.809L249.056 100.091L100.183 0.625122Z" fill="#985D0B"/>
<path d="M266.265 230.078V100.237H339.361C343.208 100.237 346.735 101.252 349.941 103.282C353.254 105.206 355.872 107.771 357.795 110.977C359.719 114.183 360.681 117.763 360.681 121.717V171.73C360.681 175.684 359.719 179.264 357.795 182.47C355.872 185.676 353.254 188.294 349.941 190.324C346.735 192.248 343.208 193.21 339.361 193.21H285.341V230.078H266.265ZM288.386 174.134H338.72C339.468 174.134 340.109 173.867 340.644 173.333C341.285 172.692 341.605 171.943 341.605 171.089V122.358C341.605 121.503 341.285 120.808 340.644 120.274C340.109 119.633 339.468 119.312 338.72 119.312H288.386C287.638 119.312 286.944 119.633 286.302 120.274C285.661 120.808 285.341 121.503 285.341 122.358V171.089C285.341 171.943 285.661 172.692 286.302 173.333C286.944 173.867 287.638 174.134 288.386 174.134ZM393.712 193.21C389.758 193.21 386.178 192.248 382.972 190.324C379.766 188.294 377.148 185.676 375.118 182.47C373.194 179.264 372.232 175.684 372.232 171.73V121.717C372.232 117.763 373.194 114.183 375.118 110.977C377.148 107.771 379.766 105.206 382.972 103.282C386.178 101.252 389.758 100.237 393.712 100.237H445.168C449.229 100.237 452.863 101.252 456.068 103.282C459.274 105.206 461.839 107.771 463.763 110.977C465.686 114.183 466.648 117.763 466.648 121.717V156.341H391.308V171.089C391.308 171.943 391.575 172.692 392.109 173.333C392.751 173.867 393.499 174.134 394.354 174.134H466.648V193.21H393.712ZM391.308 138.869H447.573V122.358C447.573 121.503 447.252 120.808 446.611 120.274C446.077 119.633 445.382 119.312 444.527 119.312H394.354C393.499 119.312 392.751 119.633 392.109 120.274C391.575 120.808 391.308 121.503 391.308 122.358V138.869ZM482.441 193.21V121.717C482.441 117.763 483.403 114.183 485.327 110.977C487.357 107.771 489.975 105.206 493.181 103.282C496.494 101.252 500.074 100.237 503.921 100.237H555.698V119.312H504.563C503.708 119.312 502.96 119.633 502.318 120.274C501.784 120.808 501.517 121.503 501.517 122.358V193.21H482.441ZM588.126 193.21C584.172 193.21 580.592 192.248 577.386 190.324C574.18 188.294 571.561 185.676 569.531 182.47C567.607 179.264 566.646 175.684 566.646 171.73V168.684H585.721V171.089C585.721 171.943 585.988 172.692 586.523 173.333C587.164 173.867 587.912 174.134 588.767 174.134H638.94C639.795 174.134 640.49 173.867 641.024 173.333C641.665 172.692 641.986 171.943 641.986 171.089V159.226C641.986 158.478 641.665 157.837 641.024 157.303C640.49 156.662 639.795 156.341 638.94 156.341H588.126C584.172 156.341 580.592 155.379 577.386 153.456C574.18 151.425 571.561 148.807 569.531 145.601C567.607 142.395 566.646 138.815 566.646 134.861V121.717C566.646 117.763 567.607 114.183 569.531 110.977C571.561 107.771 574.18 105.206 577.386 103.282C580.592 101.252 584.172 100.237 588.126 100.237H639.581C643.642 100.237 647.276 101.252 650.482 103.282C653.688 105.206 656.252 107.771 658.176 110.977C660.207 114.183 661.222 117.763 661.222 121.717V124.762H641.986V122.358C641.986 121.503 641.665 120.808 641.024 120.274C640.49 119.633 639.795 119.312 638.94 119.312H588.767C587.912 119.312 587.164 119.633 586.523 120.274C585.988 120.808 585.721 121.503 585.721 122.358V134.22C585.721 134.968 585.988 135.663 586.523 136.304C587.164 136.838 587.912 137.105 588.767 137.105H639.581C643.642 137.105 647.276 138.12 650.482 140.151C653.688 142.074 656.252 144.639 658.176 147.845C660.207 151.051 661.222 154.631 661.222 158.585V171.73C661.222 175.684 660.207 179.264 658.176 182.47C656.252 185.676 653.688 188.294 650.482 190.324C647.276 192.248 643.642 193.21 639.581 193.21H588.126ZM677.5 230.078V100.237H750.596C754.443 100.237 757.969 101.252 761.175 103.282C764.488 105.206 767.106 107.771 769.03 110.977C770.954 114.183 771.915 117.763 771.915 121.717V171.73C771.915 175.684 770.954 179.264 769.03 182.47C767.106 185.676 764.488 188.294 761.175 190.324C757.969 192.248 754.443 193.21 750.596 193.21H696.575V230.078H677.5ZM699.621 174.134H749.954C750.703 174.134 751.344 173.867 751.878 173.333C752.519 172.692 752.84 171.943 752.84 171.089V122.358C752.84 121.503 752.519 120.808 751.878 120.274C751.344 119.633 750.703 119.312 749.954 119.312H699.621C698.873 119.312 698.178 119.633 697.537 120.274C696.896 120.808 696.575 121.503 696.575 122.358V171.089C696.575 171.943 696.896 172.692 697.537 173.333C698.178 173.867 698.873 174.134 699.621 174.134ZM804.947 193.21C800.993 193.21 797.413 192.248 794.207 190.324C791.001 188.294 788.383 185.676 786.352 182.47C784.429 179.264 783.467 175.684 783.467 171.73V121.717C783.467 117.763 784.429 114.183 786.352 110.977C788.383 107.771 791.001 105.206 794.207 103.282C797.413 101.252 800.993 100.237 804.947 100.237H856.403C860.464 100.237 864.097 101.252 867.303 103.282C870.509 105.206 873.074 107.771 874.997 110.977C876.921 114.183 877.883 117.763 877.883 121.717V156.341H802.542V171.089C802.542 171.943 802.81 172.692 803.344 173.333C803.985 173.867 804.733 174.134 805.588 174.134H877.883V193.21H804.947ZM802.542 138.869H858.807V122.358C858.807 121.503 858.487 120.808 857.845 120.274C857.311 119.633 856.616 119.312 855.762 119.312H805.588C804.733 119.312 803.985 119.633 803.344 120.274C802.81 120.808 802.542 121.503 802.542 122.358V138.869ZM912.334 193.21C908.38 193.21 904.8 192.248 901.594 190.324C898.388 188.294 895.77 185.676 893.74 182.47C891.816 179.264 890.854 175.684 890.854 171.73V121.717C890.854 117.763 891.816 114.183 893.74 110.977C895.77 107.771 898.388 105.206 901.594 103.282C904.8 101.252 908.38 100.237 912.334 100.237H985.11V119.312H912.976C912.121 119.312 911.373 119.633 910.731 120.274C910.197 120.808 909.93 121.503 909.93 122.358V171.089C909.93 171.943 910.197 172.692 910.731 173.333C911.373 173.867 912.121 174.134 912.976 174.134H985.27V193.21H912.334ZM1019.89 193.21C1015.93 193.21 1012.3 192.248 1008.99 190.324C1005.78 188.294 1003.21 185.676 1001.29 182.47C999.368 179.264 998.406 175.684 998.406 171.73V71.2226H1017.48V100.237H1054.67V119.312H1017.48V171.089C1017.48 171.943 1017.75 172.692 1018.28 173.333C1018.92 173.867 1019.67 174.134 1020.53 174.134H1054.67V193.21H1019.89ZM1067.75 193.21V100.237H1086.83V193.21H1067.75ZM1067.75 89.0157V69.7799H1086.83V89.0157H1067.75ZM1149.45 193.21L1098.32 100.237H1120.44L1158.75 170.608L1197.06 100.237H1219.18L1167.72 193.21H1149.45Z" fill="#FF6600"/>
<g clip-path="url(#clip0_1127_177)">
<path d="M1246 96.125C1258.22 96.125 1268.12 86.2193 1268.12 74C1268.12 61.7807 1258.22 51.875 1246 51.875C1233.78 51.875 1223.88 61.7807 1223.88 74C1223.88 86.2193 1233.78 96.125 1246 96.125Z" stroke="#FF6600" stroke-width="5"/>
<path d="M1244.65 72C1246.03 72 1247.03 71.725 1247.63 71.2C1248.23 70.7 1248.55 69.85 1248.55 68.65C1248.55 67.475 1248.23 66.65 1247.63 66.125C1247.03 65.625 1246.03 65.375 1244.65 65.375H1241.85V72H1244.65ZM1241.85 76.5751V86.3251H1235.2V60.55H1245.35C1248.75 60.55 1251.23 61.125 1252.8 62.275C1254.4 63.4 1255.18 65.2 1255.18 67.675C1255.18 69.375 1254.78 70.775 1253.95 71.875C1253.13 72.95 1251.9 73.775 1250.23 74.275C1251.15 74.5 1251.95 74.975 1252.68 75.7C1253.4 76.425 1254.13 77.525 1254.85 79.025L1258.48 86.3251H1251.4L1248.25 79.925C1247.63 78.65 1246.98 77.75 1246.33 77.3C1245.68 76.825 1244.8 76.5751 1243.73 76.5751H1241.85Z" fill="#FF6600"/>
</g>
<defs>
<clipPath id="clip0_1127_177">
<rect width="50" height="50" fill="white" transform="translate(1221 49)"/>
</clipPath>
</defs>
</svg>
