<svg width="150" height="150" viewBox="0 0 150 150" fill="none" xmlns="http://www.w3.org/2000/svg">
<path d="M74.6602 60.1467C73.3085 68.7475 71.2052 75.9314 67.4031 83.2012L140.831 89.0724L140.952 78.419L74.6602 60.1467Z" fill="#985D0B"/>
<path d="M65.8688 86.9348C60.5717 95.7288 55.4524 101.837 47.3328 107.286L140.602 99.981L140.759 89.606L65.8688 86.9348Z" fill="#985D0B"/>
<path d="M73.7847 28.4613C74.7653 33.4799 75.6442 42.1376 75.6442 47.4859C75.6442 50.4789 75.4746 53.4181 75.1603 56.3159L140.919 78.0078L141.176 66.0571L73.7847 28.4613Z" fill="#985D0B"/>
<path fill-rule="evenodd" clip-rule="evenodd" d="M62.2348 87.2095L8.89369 90.2955L9.00256 101.333L43.589 107.681C51.3498 101.912 57.3568 96.2801 62.2348 87.2095Z" fill="#FF6600"/>
<path fill-rule="evenodd" clip-rule="evenodd" d="M71.8856 60.6792L9.08718 78.1024L9.15167 89.4276L64.6588 83.3379C68.1052 76.4285 70.5838 68.7953 71.8856 60.6792H71.8856Z" fill="#FF6600"/>
<path fill-rule="evenodd" clip-rule="evenodd" d="M71.7081 28.1946L9.10733 66.3709L9.22433 76.9426L72.3453 56.6405C72.6196 53.5177 72.9341 47.6416 72.9341 44.4217C72.9341 38.8646 72.5085 33.4407 71.7081 28.1946Z" fill="#FF6600"/>
<path fill-rule="evenodd" clip-rule="evenodd" d="M59.3033 2.5807L9.14291 52.4508L9.13546 65.437L69.9254 23.8098C67.5946 16.129 63.4245 8.85499 59.3032 2.5807H59.3033Z" fill="#FF6600"/>
<path d="M37.3026 149.743L37.3921 130.072L140.677 111.008L140.852 120.014L37.3026 149.743Z" fill="#985D0B"/>
<path d="M8.86526 123.989L34.9273 149.771L35.0618 129.866L8.89259 113.38L8.86526 123.989Z" fill="#FF6600"/>
<path d="M37.2178 128.027L37.2905 110.008L140.543 100.867L140.525 110.623L37.2178 128.027Z" fill="#985D0B"/>
<path d="M8.91637 112.935L35.1554 127.451L35.2467 109.993L8.82352 102.273L8.91636 112.935H8.91637Z" fill="#FF6600"/>
<path d="M61.9499 0.882355C64.607 5.26331 67.1931 9.33339 68.8697 14.2991C69.8206 17.1156 71.5672 20.5225 71.9714 23.4203L140.919 65.6194L140.896 52.3195L61.9499 0.882355Z" fill="#985D0B"/>
</svg>
